<svg width="19" height="18" viewBox="0 0 19 18" fill="none" xmlns="http://www.w3.org/2000/svg">
<g id="calendar-62a86ad26c51fe49ea1c6abb202a15b4.svg" clip-path="url(#clip0_1_30244)">
<path id="Vector" d="M5.5004 0V0.9999H13.5005V0H14.5004V0.9999H16.0007C17.3237 0.9999 18.4064 2.0277 18.4946 3.3282V3.3363L18.5 3.5001V15.4998C18.5 16.8804 17.3804 18 15.9998 18H3.0002C1.6196 18 0.5 16.8804 0.5 15.4998V3.5001C0.5 2.1195 1.6196 0.9999 3.0002 0.9999H4.5005V0L5.5004 0ZM4.4996 1.9998H2.9993C2.1722 1.9998 1.499 2.673 1.499 3.5001V15.4998C1.499 16.3269 2.1722 17.0001 2.9993 17.0001H15.9989C16.826 17.0001 17.4992 16.3269 17.4992 15.4998V3.5001C17.4992 2.673 16.826 1.9998 15.9989 1.9998H14.4986V2.9997H13.4987V1.9998H5.4986V2.9997H4.4987L4.4996 1.9998ZM15.9998 15.0003H3.0002V5.0004H15.9998V15.0003ZM5.9999 11.9997H4.0001V13.9995H5.9999V11.9997ZM8.9996 11.9997H6.9998V13.9995H8.9996V11.9997ZM12.0002 11.9997H10.0004V13.9995H12.0002V11.9997ZM14.9999 11.9997H13.0001V13.9995H14.9999V11.9997ZM5.9999 9H4.0001V10.9998H5.9999V9ZM8.9996 9H6.9998V10.9998H8.9996V9ZM12.0002 9H10.0004V10.9998H12.0002V9ZM14.9999 9H13.0001V10.9998H14.9999V9ZM5.9999 6.0003H4.0001V8.0001H5.9999V6.0003ZM8.9996 6.0003H6.9998V8.0001H8.9996V6.0003ZM12.0002 6.0003H10.0004V8.0001H12.0002V6.0003ZM14.9999 6.0003H13.0001V8.0001H14.9999V6.0003Z" fill="#FDFDFD"/>
</g>
<defs>
<clipPath id="clip0_1_30244">
<rect width="18" height="18" fill="white" transform="translate(0.5)"/>
</clipPath>
</defs>
</svg>
