<svg width="21" height="20" viewBox="0 0 21 20" fill="none" xmlns="http://www.w3.org/2000/svg">
<g id="download-a627554318349f77bb4b3634e94b0205.svg" clip-path="url(#clip0_1_30027)">
<path id="Vector" d="M10.8843 19.5242C16.1443 19.5242 20.4081 15.2604 20.4081 10.0004C20.4081 4.74037 16.1443 0.476562 10.8843 0.476562C5.62428 0.476562 1.36047 4.74037 1.36047 10.0004C1.36047 15.2604 5.62428 19.5242 10.8843 19.5242ZM10.8843 1.42894C15.6186 1.42894 19.4557 5.26704 19.4557 10.0004C19.4557 14.7337 15.6186 18.5718 10.8843 18.5718C6.15095 18.5718 2.31285 14.7337 2.31285 10.0004C2.31285 5.26704 6.15095 1.42894 10.8843 1.42894ZM10.8843 4.76228C10.6214 4.76228 10.4081 4.97561 10.4081 5.23847L10.4071 13.6118L7.4119 10.6156L7.34524 10.5613C7.15952 10.4328 6.90333 10.4508 6.73762 10.6156C6.5519 10.8023 6.5519 11.1032 6.73762 11.2899L10.5471 15.0994L10.6138 15.1537C10.6833 15.2023 10.7624 15.2299 10.8433 15.2366H10.9252L11.0052 15.2232C11.0843 15.2023 11.1586 15.1613 11.2214 15.0994L15.0309 11.2899L15.0852 11.2232C15.2138 11.0375 15.1957 10.7813 15.0309 10.6156C14.8652 10.4508 14.609 10.4328 14.4233 10.5613L14.3567 10.6156L11.3595 13.6128L11.3605 5.23847C11.3605 4.97561 11.1471 4.76228 10.8843 4.76228Z" fill="#FDFDFD"/>
</g>
<defs>
<clipPath id="clip0_1_30027">
<rect width="20" height="19.0476" fill="white" transform="translate(0.72998 0.476562)"/>
</clipPath>
</defs>
</svg>
