<svg width="21" height="20" viewBox="0 0 21 20" fill="none" xmlns="http://www.w3.org/2000/svg">
<g id="football-scores-active-bbdbd06988e3eeb0bc7440f02e090112.svg" clip-path="url(#clip0_1_30003)">
<path id="Vector" d="M8.01336 19.762L7.90036 19.736C7.76136 19.705 7.69036 19.687 7.61936 19.668L7.68836 19.684L8.01336 19.762C7.56236 19.661 7.18836 19.551 6.82336 19.42L6.89236 19.442L6.82436 19.418C6.52536 19.312 6.29836 19.219 6.07636 19.118L6.13836 19.143L6.07236 19.113C5.08636 18.661 4.23936 18.097 3.49336 17.422L3.50236 17.43C2.90036 16.888 2.37136 16.284 1.92136 15.622L1.89936 15.588L1.84736 15.506C0.981359 14.213 0.404359 12.659 0.243359 10.982L0.240359 10.942L0.238359 10.943C0.210359 10.661 0.193359 10.334 0.193359 10.002C0.193359 9.723 0.205359 9.447 0.227359 9.174L0.225359 9.21L0.237359 9.088C0.369359 7.651 0.788359 6.337 1.43636 5.168L1.41036 5.219L1.44836 5.149C1.60436 4.868 1.74336 4.643 1.88936 4.425L1.86636 4.462L1.92936 4.37C2.16436 4.023 2.41936 3.694 2.69336 3.384C3.60136 2.361 4.70036 1.53 5.93936 0.945L6.00036 0.919L6.22036 0.821L6.23236 0.816C6.32536 0.776 6.41936 0.736 6.51436 0.699L6.22036 0.821C7.38536 0.302 8.74436 0 10.1744 0C10.3094 0 10.4424 0.003 10.5764 0.008L10.5574 0.007L10.1934 0C10.9704 0.001 11.7274 0.088 12.4544 0.254L12.3864 0.241C13.0694 0.396 13.6634 0.595 14.2294 0.846L14.1664 0.821L14.3864 0.919C15.6864 1.53 16.7854 2.361 17.6834 3.375L17.6924 3.386V3.384C18.1684 3.921 18.5934 4.522 18.9494 5.168L18.9754 5.219C19.5984 6.337 20.0184 7.652 20.1484 9.05L20.1514 9.089L20.1594 9.209C20.1794 9.448 20.1914 9.727 20.1914 10.008C20.1914 11.882 19.6744 13.636 18.7744 15.134L18.7994 15.089H18.8014C18.7184 15.231 18.6314 15.37 18.5414 15.507C18.5214 15.533 18.5044 15.56 18.4854 15.587C17.9534 16.373 17.3434 17.051 16.6514 17.635L16.6364 17.647C15.9654 18.216 15.2014 18.707 14.3764 19.088L14.3144 19.114L14.2484 19.143C14.0234 19.243 13.7954 19.335 13.5624 19.418L13.4944 19.442C13.1964 19.552 12.8214 19.662 12.4374 19.75L12.3724 19.762C11.7174 19.914 10.9654 20.001 10.1934 20.001C9.42136 20.001 8.66836 19.914 7.94636 19.749L8.01336 19.762ZM13.2694 1.54L10.8184 3.5C10.6484 3.637 10.4304 3.719 10.1934 3.719C10.0004 3.719 9.82036 3.665 9.66836 3.57L9.67236 3.572L9.56836 3.499L7.11836 1.539C5.48936 2.144 4.12936 3.151 3.11436 4.443L3.09936 4.462L4.20636 7.396C4.24736 7.501 4.27136 7.622 4.27136 7.749C4.27136 8.052 4.13636 8.324 3.92336 8.507L3.92236 8.508L3.82136 8.584L1.20136 10.308C1.26136 12.079 1.82636 13.707 2.75636 15.066L2.73636 15.035L5.86936 14.889C5.88336 14.888 5.89936 14.888 5.91636 14.888C6.33036 14.888 6.68536 15.139 6.83736 15.498L6.83936 15.505L6.87936 15.625L7.70936 18.651C8.45236 18.872 9.30536 18.999 10.1874 18.999C10.1894 18.999 10.1924 18.999 10.1944 18.999C10.1964 18.999 10.1984 18.999 10.2014 18.999C11.0844 18.999 11.9374 18.872 12.7434 18.635L12.6794 18.651L13.5094 15.625C13.6214 15.223 13.9684 14.927 14.3894 14.892H14.3934L14.5194 14.89L17.6524 15.036C18.5624 13.708 19.1264 12.08 19.1864 10.324V10.309L16.5674 8.585C16.2944 8.404 16.1174 8.097 16.1174 7.75C16.1174 7.667 16.1274 7.587 16.1464 7.511L16.1454 7.518L16.1824 7.398L17.2894 4.463C16.2594 3.152 14.8984 2.144 13.3314 1.559L13.2694 1.54ZM10.7824 6.428L13.4104 8.338C13.6614 8.522 13.8224 8.816 13.8224 9.147C13.8224 9.258 13.8044 9.364 13.7714 9.463L13.7734 9.456L12.7694 12.546C12.6354 12.95 12.2604 13.237 11.8184 13.237H8.56936C8.12736 13.237 7.75236 12.95 7.62036 12.553L7.61836 12.546L6.61436 9.456C6.58336 9.364 6.56536 9.257 6.56536 9.147C6.56536 8.816 6.72636 8.522 6.97436 8.34L6.97736 8.338L9.60536 6.428C9.76836 6.309 9.97236 6.237 10.1934 6.237C10.4144 6.237 10.6184 6.309 10.7844 6.43L10.7824 6.428Z" fill="#8A7E75"/>
</g>
<defs>
<clipPath id="clip0_1_30003">
<rect width="20" height="20" fill="white" transform="translate(0.193359)"/>
</clipPath>
</defs>
</svg>
