<svg width="20" height="21" viewBox="0 0 20 21" fill="none" xmlns="http://www.w3.org/2000/svg">
<g id="SVG" clip-path="url(#clip0_1_30288)">
<path id="Vector" d="M10.2469 1.05791C10.355 1.11166 10.4438 1.19979 10.4969 1.30791L13.1588 6.67791C13.24 6.84104 13.3957 6.95479 13.5769 6.98104L19.5238 7.84104C19.8275 7.88479 20.0375 8.16729 19.9938 8.47104C19.9769 8.59104 19.9188 8.70416 19.8307 8.78916L15.5307 12.9623C15.3988 13.0904 15.3388 13.2742 15.3707 13.4554L16.3857 19.3504C16.4375 19.6535 16.2357 19.9404 15.9325 19.9923C15.8125 20.0123 15.6888 19.9935 15.5807 19.9373L10.2563 17.1504C10.0963 17.0667 9.90317 17.0667 9.74129 17.1504L4.41942 19.9373C4.14754 20.0792 3.81129 19.9742 3.66942 19.7023C3.61317 19.5942 3.59317 19.471 3.61442 19.3504L4.62942 13.4554C4.66129 13.2754 4.60067 13.0904 4.46942 12.9623L0.168167 8.79041C-0.0518334 8.57666 -0.0580834 8.22541 0.156292 8.00541C0.241292 7.91729 0.353167 7.86041 0.475042 7.84229L6.42192 6.98229C6.60192 6.95604 6.75879 6.84229 6.84004 6.67916L9.50129 1.30791C9.63817 1.03416 9.97129 0.921663 10.2463 1.05791H10.2469ZM10 2.80479L7.83629 7.17104C7.61754 7.61291 7.21629 7.93104 6.74254 8.04916L6.58254 8.07916L1.75254 8.77791L5.24254 12.1648C5.59879 12.5098 5.77942 12.9929 5.74442 13.481L5.72442 13.6442L4.89942 18.4323L9.22754 16.166C9.66379 15.9379 10.1744 15.916 10.6257 16.0979L10.7725 16.166L15.1007 18.4323L14.2769 13.6442C14.1932 13.156 14.3307 12.6592 14.6469 12.2854L14.7588 12.1654L18.2475 8.77854L13.4175 8.08041C12.9307 8.01041 12.5025 7.72729 12.2444 7.31416L12.1644 7.17104L10 2.80479Z" fill="#FDFDFD"/>
</g>
<defs>
<clipPath id="clip0_1_30288">
<rect width="20" height="20" fill="white" transform="translate(0 0.5)"/>
</clipPath>
</defs>
</svg>
