<svg width="30" height="20" viewBox="0 0 30 20" fill="none" xmlns="http://www.w3.org/2000/svg">
<g id="live-9cc2fb1af6dcface698283d0ec166775.svg" clip-path="url(#clip0_1_30208)">
<path id="Vector" d="M27 0C28.657 0 30 1.343 30 3V17C30 18.657 28.657 20 27 20H3C1.343 20 0 18.657 0 17V3C0 1.343 1.343 0 3 0H27ZM5.837 6.25H3.866V14H9.13V12.373H5.838L5.837 6.25ZM12.134 6.25H10.163V14H12.134V6.25ZM15.301 6.25H13.04L15.538 14H18.03L20.463 6.25H18.336L16.891 11.954H16.789L15.301 6.25ZM26.68 6.25H21.368V14H26.68V12.416H23.339V10.832H26.481V9.382H23.339V7.835H26.68V6.25Z" fill="#FDFDFD"/>
</g>
<defs>
<clipPath id="clip0_1_30208">
<rect width="30" height="20" fill="white"/>
</clipPath>
</defs>
</svg>
