<svg width="104" height="20" viewBox="0 0 104 20" fill="none" xmlns="http://www.w3.org/2000/svg">
<g id="livescore-logo-b3b211143dccd9e22d164701d32a390f.svg" clip-path="url(#clip0_1_29998)">
<path id="Vector" fill-rule="evenodd" clip-rule="evenodd" d="M10.5822 3.01996C10.5822 4.02131 11.3857 4.83582 12.3723 4.83582C13.3589 4.83582 14.1615 4.02131 14.1615 3.01996C14.1615 2.01861 13.3589 1.2041 12.3723 1.2041C11.3857 1.2041 10.5822 2.01861 10.5822 3.01996ZM31.813 10.1573C31.813 9.58945 32.2639 9.12651 32.8161 9.12651H35.3471C35.8993 9.12651 36.3503 9.58945 36.3503 10.1573V11.1191H31.813V10.1573ZM28.3239 14.5934C28.3239 17.1354 30.3395 19.2044 32.8171 19.2044H38.9466L39.7906 15.6233H32.8171C32.263 15.6233 31.813 15.1603 31.813 14.5925V14.0799H39.8394V10.5531C39.8394 8.01012 37.8238 5.94116 35.3462 5.94116H32.8171C30.3395 5.94116 28.3239 8.01012 28.3239 10.5531V14.5934ZM14.0059 19.2044H10.5822V6.25685H14.0059V19.2044ZM19.6606 19.2044L15.2512 6.25685H18.8332L21.6311 14.4738L24.4299 6.25685H28.0119L23.6034 19.2044H19.6606ZM67.1398 10.5531C67.1398 9.9852 67.5899 9.52226 68.143 9.52226H70.6731C71.2271 9.52226 71.6762 9.9852 71.6762 10.5531V14.5934C71.6762 15.1613 71.2262 15.6233 70.6731 15.6233H68.143C67.5899 15.6233 67.1398 15.1603 67.1398 14.5925V10.5531ZM63.6498 14.5934C63.6498 17.1354 65.6654 19.2044 68.143 19.2044H70.6731C73.1507 19.2044 75.1662 17.1354 75.1662 14.5934V10.5531C75.1662 8.01012 73.1507 5.94116 70.6731 5.94116H68.143C65.6654 5.94116 63.6498 8.01012 63.6498 10.5521V14.5934ZM57.431 19.2044C54.9387 19.2044 52.9121 17.1603 52.9121 14.6477V10.6561C52.9121 8.14357 54.9387 6.09946 57.431 6.09946H62.5611L61.7116 9.6373H57.431C56.8742 9.6373 56.4205 10.0947 56.4205 10.6561V14.6477C56.4205 15.2091 56.8742 15.6656 57.431 15.6656H62.5611L61.7116 19.2044H57.431ZM76.567 10.6561V19.2044H80.0211V10.6561C80.0211 10.0947 80.4666 9.6373 81.0151 9.6373H83.6685L84.5032 6.09946H81.0151C78.5623 6.09946 76.567 8.14265 76.567 10.6561ZM89.4639 9.12743C88.9099 9.12743 88.4598 9.58945 88.4598 10.1582V11.1191H92.9972V10.1573C92.9972 9.58945 92.5471 9.12651 91.994 9.12651L89.4639 9.12743ZM89.4639 19.2044C86.9863 19.2044 84.9708 17.1354 84.9708 14.5934V10.5531C84.9708 8.01012 86.9863 5.94116 89.4639 5.94116H91.9931C94.4707 5.94116 96.4862 8.01012 96.4862 10.5531V14.0799H88.4598V14.5925C88.4598 15.1603 88.9108 15.6233 89.4639 15.6233H96.385L95.541 19.2044H89.4639ZM4.48857 19.2044C2.01281 19.2044 0 17.163 0 14.6532V2.15207H3.48538V14.6532C3.48538 15.2147 3.93635 15.6702 4.48857 15.6702H9.18237L8.33841 19.2044H4.48857ZM41.4665 15.6776L40.618 19.2044H47.3062C49.7967 19.2044 51.8224 17.1676 51.8224 14.6634V13.2939C51.8224 10.9286 49.9872 8.9406 47.644 8.76573L45.4416 8.57798L45.0633 8.54577C44.81 8.52347 44.5743 8.40721 44.4024 8.21985C44.2306 8.0325 44.1351 7.78761 44.1347 7.53338V6.69309C44.1347 6.13352 44.5875 5.67794 45.1443 5.67794H50.151L50.9987 2.15207H45.1443C42.6529 2.15207 40.6272 4.18881 40.6272 6.69309V7.53338C40.6272 9.88948 42.455 11.8774 44.789 12.0615L46.6297 12.218L47.3752 12.2815C47.9026 12.3174 48.3149 12.7619 48.3149 13.2939V14.6634C48.3154 14.9315 48.2095 15.189 48.0203 15.3791C47.8312 15.5693 47.5744 15.6766 47.3062 15.6776H41.4665ZM98.4171 9.2572V6.52835H97.4995V5.94208H99.99V6.52927H99.0779V9.25812L98.4171 9.2572ZM102.139 8.22456H101.731L101.092 7.13486V9.2572H100.457V5.94116H101.092L101.944 7.40453L102.797 5.94116H103.414V9.2572H102.779V7.13486L102.139 8.22456Z" fill="#FDFDFD"/>
</g>
<defs>
<clipPath id="clip0_1_29998">
<rect width="104" height="18.4071" fill="white" transform="translate(0 0.796875)"/>
</clipPath>
</defs>
</svg>
