<svg width="14" height="14" viewBox="0 0 14 14" fill="none" xmlns="http://www.w3.org/2000/svg">
<g id="hamburger-menu-09595bd28744ad1fa99a010f1f41f34b.svg" clip-path="url(#clip0_1_29992)">
<path id="Vector" d="M13.5002 12.9997C13.776 12.9997 14 13.2237 14 13.4995C14 13.7753 13.776 13.9993 13.5002 13.9993H0.500532C0.224732 13.9993 0.000732422 13.7753 0.000732422 13.4995C0.000732422 13.2237 0.224732 12.9997 0.500532 12.9997H13.5002ZM13.5002 6.5002C13.776 6.5002 14 6.7242 14 7C14 7.2758 13.776 7.4998 13.5002 7.4998H0.500532C0.224732 7.4998 0.000732422 7.2758 0.000732422 7C0.000732422 6.7242 0.224732 6.5002 0.500532 6.5002H13.5002ZM13.5002 0C13.776 0 14 0.224 14 0.4998C14 0.7756 13.776 0.9996 13.5002 0.9996H0.500532C0.224732 0.9996 0.000732422 0.7756 0.000732422 0.4998C0.000732422 0.224 0.224732 0 0.500532 0H13.5002Z" fill="#555555"/>
</g>
<defs>
<clipPath id="clip0_1_29992">
<rect width="14" height="14" fill="white"/>
</clipPath>
</defs>
</svg>
