<svg width="21" height="20" viewBox="0 0 21 20" fill="none" xmlns="http://www.w3.org/2000/svg">
<g id="news-article-72be5c0a80489a5b2c0fb7ff831784dc.svg" clip-path="url(#clip0_1_30019)">
<path id="Vector" d="M17.2433 0.476562C18.8214 0.476562 20.1005 1.75561 20.1005 3.33371V16.667C20.1005 18.2451 18.8214 19.5242 17.2433 19.5242H3.91C2.3319 19.5242 1.05286 18.2451 1.05286 16.667V3.33371C1.05286 1.75561 2.3319 0.476562 3.91 0.476562H17.2433ZM17.2433 1.42894H3.91C2.85762 1.42894 2.00524 2.28132 2.00524 3.33371V16.667C2.00524 17.7194 2.85762 18.5718 3.91 18.5718H17.2433C18.2957 18.5718 19.1481 17.7194 19.1481 16.667V3.33371C19.1481 2.28132 18.2957 1.42894 17.2433 1.42894ZM15.8148 14.7623C16.0776 14.7623 16.291 14.9756 16.291 15.2385C16.291 15.5013 16.0776 15.7147 15.8148 15.7147H5.33857C5.07571 15.7147 4.86238 15.5013 4.86238 15.2385C4.86238 14.9756 5.07571 14.7623 5.33857 14.7623H15.8148ZM15.8148 12.8575C16.0776 12.8575 16.291 13.0708 16.291 13.3337C16.291 13.5966 16.0776 13.8099 15.8148 13.8099H5.33857C5.07571 13.8099 4.86238 13.5966 4.86238 13.3337C4.86238 13.0708 5.07571 12.8575 5.33857 12.8575H15.8148ZM15.8148 10.9528C16.0776 10.9528 16.291 11.1661 16.291 11.4289C16.291 11.6918 16.0776 11.9051 15.8148 11.9051H5.33857C5.07571 11.9051 4.86238 11.6918 4.86238 11.4289C4.86238 11.1661 5.07571 10.9528 5.33857 10.9528H15.8148ZM8.6719 4.28609C9.19762 4.28609 9.62428 4.71275 9.62428 5.23847V8.09561C9.62428 8.62132 9.19762 9.04799 8.6719 9.04799H5.81476C5.28905 9.04799 4.86238 8.62132 4.86238 8.09561V5.23847C4.86238 4.71275 5.28905 4.28609 5.81476 4.28609H8.6719ZM15.8148 8.09561C16.0776 8.09561 16.291 8.30894 16.291 8.5718C16.291 8.83466 16.0776 9.04799 15.8148 9.04799H12.0052C11.7424 9.04799 11.529 8.83466 11.529 8.5718C11.529 8.30894 11.7424 8.09561 12.0052 8.09561H15.8148ZM8.6719 5.23847H5.81476V8.09561H8.6719V5.23847ZM15.8148 6.19085C16.0776 6.19085 16.291 6.40418 16.291 6.66704C16.291 6.9299 16.0776 7.14323 15.8148 7.14323H12.0052C11.7424 7.14323 11.529 6.9299 11.529 6.66704C11.529 6.40418 11.7424 6.19085 12.0052 6.19085H15.8148ZM15.8148 4.28609C16.0776 4.28609 16.291 4.49942 16.291 4.76228C16.291 5.02513 16.0776 5.23847 15.8148 5.23847H12.0052C11.7424 5.23847 11.529 5.02513 11.529 4.76228C11.529 4.49942 11.7424 4.28609 12.0052 4.28609H15.8148Z" fill="#AAAAAA"/>
</g>
<defs>
<clipPath id="clip0_1_30019">
<rect width="20" height="19.0476" fill="white" transform="translate(0.536621 0.476562)"/>
</clipPath>
</defs>
</svg>
