<svg width="18" height="18" viewBox="0 0 18 18" fill="none" xmlns="http://www.w3.org/2000/svg">
<g id="mobile-search-2b729ef15856930595249a3c2bab7161.svg">
<g id="Group">
<g id="Group_2">
<g id="Group_3">
<path id="Vector" fill-rule="evenodd" clip-rule="evenodd" d="M1.05882 6.88235C1.05882 3.67094 3.67094 1.05882 6.88235 1.05882C10.0938 1.05882 12.7059 3.67094 12.7059 6.88235C12.7059 10.0938 10.0938 12.7059 6.88235 12.7059C3.67094 12.7059 1.05882 10.0938 1.05882 6.88235ZM12.1055 11.3569C13.1379 10.1531 13.7647 8.59235 13.7647 6.88235C13.7647 3.08118 10.6835 0 6.88235 0C3.08118 0 0 3.08118 0 6.88235C0 10.6835 3.08118 13.7647 6.88235 13.7647C8.59235 13.7647 10.1531 13.1379 11.3569 12.1055L16.0899 16.8385C16.1936 16.9422 16.3292 16.9941 16.4647 16.9941C16.6002 16.9941 16.7358 16.9422 16.8385 16.8385C17.046 16.632 17.046 16.2974 16.8385 16.0899L12.1055 11.3569Z" fill="#AAAAAA"/>
</g>
</g>
</g>
</g>
</svg>
