<svg width="21" height="21" viewBox="0 0 21 21" fill="none" xmlns="http://www.w3.org/2000/svg">
<g id="search-1e1f1087166a2eae49a82dd529b7aafd.svg" clip-path="url(#clip0_1_31059)">
<g id="Group">
<g id="Group_2">
<g id="Group_3">
<path id="Vector" fill-rule="evenodd" clip-rule="evenodd" d="M5.01123 10.258C5.28723 10.258 5.51123 10.482 5.51123 10.758C5.51123 11.034 5.28723 11.258 5.01123 11.258H1.01123C0.73523 11.258 0.51123 11.034 0.51123 10.758C0.51123 10.482 0.73523 10.258 1.01123 10.258H5.01123ZM4.01123 6.75796C4.28723 6.75796 4.51123 6.98196 4.51123 7.25796C4.51123 7.53396 4.28723 7.75796 4.01123 7.75796H1.01123C0.73523 7.75796 0.51123 7.53396 0.51123 7.25796C0.51123 6.98196 0.73523 6.75796 1.01123 6.75796H4.01123ZM5.01123 3.25796C5.28723 3.25796 5.51123 3.48196 5.51123 3.75796C5.51123 4.03396 5.28723 4.25796 5.01123 4.25796H1.01123C0.73523 4.25796 0.51123 4.03396 0.51123 3.75796C0.51123 3.48196 0.73523 3.25796 1.01123 3.25796H5.01123ZM7.11823 10.107C5.54523 6.57496 7.13423 2.43696 10.6662 0.864957C14.1972 -0.708043 18.3362 0.880957 19.9082 4.41296C21.4122 7.79096 20.0242 11.723 16.8102 13.435L19.4602 19.389C19.5732 19.642 19.4602 19.937 19.2072 20.049C18.9552 20.162 18.6592 20.049 18.5472 19.796L15.8962 13.842C12.4732 15.085 8.62223 13.485 7.11823 10.107ZM15.9532 12.741C18.9802 11.393 20.3422 7.84696 18.9932 4.81896C17.6462 1.79196 14.0992 0.430957 11.0732 1.77896C8.04523 3.12596 6.68323 6.67296 8.03123 9.69996C9.37923 12.727 12.9262 14.089 15.9532 12.741Z" fill="#FDFDFD"/>
</g>
</g>
</g>
</g>
<defs>
<clipPath id="clip0_1_31059">
<rect width="20" height="20" fill="white" transform="translate(0.51123 0.257812)"/>
</clipPath>
</defs>
</svg>
