<svg width="18" height="18" viewBox="0 0 18 18" fill="none" xmlns="http://www.w3.org/2000/svg">
<g id="SVG">
<path id="Vector" d="M11.8969 9.5573C11.8969 9.64355 11.8631 9.72043 11.7956 9.78793L7.10439 14.4792C7.03689 14.5467 6.96002 14.5804 6.87377 14.5804C6.78752 14.5804 6.71064 14.5467 6.64314 14.4792L6.13689 13.9729C6.06939 13.9054 6.03564 13.8304 6.03564 13.7479C6.03564 13.6654 6.06939 13.5867 6.13689 13.5117L10.0913 9.5573L6.13689 5.60293C6.06939 5.53543 6.03564 5.45668 6.03564 5.36668C6.03564 5.27668 6.06939 5.20168 6.13689 5.14168L6.64314 4.63543C6.70689 4.56793 6.78189 4.53418 6.86814 4.53418C6.95439 4.53418 7.03314 4.56793 7.10439 4.63543L11.7956 9.32105C11.8631 9.38855 11.8969 9.4673 11.8969 9.5573Z" fill="#FDFDFD"/>
</g>
</svg>
